<svg xmlns="http://www.w3.org/2000/svg" width="24" height="24">
  <path d="M19.24 4c-.4 0-.8.16-1.08.46l-7.26 7.53c-.9.91-1.87 1.55-2.88 1.55-.67 0-1.35-.29-2.03-.96l-3.55 3.57A1.5 1.5 0 0 0 2 17.2v.87c0 .83.67 1.5 1.5 1.5h6.86c.4 0 .8-.16 1.08-.45 1.35-1.4 5.37-5.55 5.56-5.55v6h3.5l1.24-8 .29-3.05a5.16 5.16 0 0 0-1.83-4.19 1.51 1.51 0 0 0-.96-.34m0 1.5h.01c.85.7 1.24 1.62 1.27 2.97l-.27 2.93-1.04 6.68h-.71v-6H17c-.8 0-.84 0-6.64 6H3.5v-.87l2.64-2.66c.6.32 1.23.49 1.89.49 1.32 0 2.65-.68 3.96-2.01l7.24-7.53"></path>
</svg>