<svg xmlns="http://www.w3.org/2000/svg" width="24" height="24">
  <path fill-rule="evenodd" d="M15.5 12.25h-3.75V7.5h1.5v3.25h2.25v1.5zm-7 8.25l-.422-2.956a7.447 7.447 0 008.844 0L16.5 20.5h-8zm8-18l.422 2.956a7.447 7.447 0 00-8.844 0L8.5 2.5h8zm-10 9a6 6 0 0112 0 6 6 0 01-12 0zm13.5 0a7.455 7.455 0 00-1.301-4.215l-.714-4.997A1.5 1.5 0 0016.5 1h-8a1.5 1.5 0 00-1.485 1.288l-.714 4.997A7.455 7.455 0 005 11.5c0 1.562.481 3.013 1.301 4.215l.714 4.997A1.5 1.5 0 008.5 22h8a1.5 1.5 0 001.485-1.288l.714-4.997A7.455 7.455 0 0020 11.5z"></path>
</svg>