<svg xmlns="http://www.w3.org/2000/svg" width="24" height="24">
  <path fill-rule="evenodd" d="M2.5 14.5v-1.146c0-.572.318-1.086.829-1.341l2.415-1.208L7.47 12.53l1.06-1.06-1.372-1.372 1.92-.96 2.392 2.392 1.06-1.06-2.038-2.039 3.592-1.796C14.718 7.833 15.966 9.5 18 9.5c1.613 0 2.595-.511 3.165-1h.335v6h-19zm19.001 3L2.5 17.501V16h19l.001 1.5zM21.5 7h-1S20 8 18 8s-3-3-3-3h-1L6.041 8.98l-.011-.01L6 9l-3.342 1.671A3 3 0 001 13.354v4.147C1 18.329 1.671 19 2.499 19h19.002c.828 0 1.499-.671 1.499-1.499V8.5A1.5 1.5 0 0021.5 7z"></path>
</svg>