<svg xmlns="http://www.w3.org/2000/svg" width="24" height="24">
  <path d="M10.2 2zm4.85 0H13.2v1.21c0 .84-.67 1.53-1.5 1.53s-1.5-.69-1.5-1.53V2H8.33c-.54 0-1.05.3-1.31.77-.48.9-1.13 2.38-.83 3.65C6.67 8.43 7.7 10 7.7 10l-5.25 5.25a1.5 1.5 0 0 0-.24 1.82c1 1.72 3.64 4.93 9.5 4.93 5.84 0 8.48-3.2 9.48-4.93a1.5 1.5 0 0 0-.24-1.82L15.7 10s1.03-1.57 1.5-3.58c.3-1.27-.34-2.76-.83-3.65a1.49 1.49 0 0 0-1.3-.77zm0 1.5c.56 1.03.82 2 .68 2.58-.4 1.7-1.29 3.09-1.3 3.1l-.66 1.02.86.86 5.25 5.26c-.9 1.56-3.17 4.18-8.19 4.18S4.4 17.88 3.5 16.31l5.25-5.25.86-.86-.66-1.02c-.01-.02-.9-1.4-1.3-3.1-.14-.58.12-1.55.68-2.58h.38a3.02 3.02 0 0 0 2.98 2.74c1.56 0 2.84-1.2 2.99-2.74h.37z"></path>
</svg>